<?xml version="1.0" encoding="UTF-8" standalone="no"?>
<!-- Created with Inkscape (http://www.inkscape.org/) -->

<svg
   xmlns:dc="http://purl.org/dc/elements/1.1/"
   xmlns:cc="http://creativecommons.org/ns#"
   xmlns:rdf="http://www.w3.org/1999/02/22-rdf-syntax-ns#"
   xmlns:svg="http://www.w3.org/2000/svg"
   xmlns="http://www.w3.org/2000/svg"
   xmlns:sodipodi="http://sodipodi.sourceforge.net/DTD/sodipodi-0.dtd"
   xmlns:inkscape="http://www.inkscape.org/namespaces/inkscape"
   version="1.1"
   id="svg2"
   width="345"
   height="361"
   viewBox="0 0 345 361"
   sodipodi:docname="button-spartronics-pinta-bw.svg"
   inkscape:version="0.92.4 5da689c313, 2019-01-14">
  <metadata
     id="metadata8">
    <rdf:RDF>
      <cc:Work
         rdf:about="">
        <dc:format>image/svg+xml</dc:format>
        <dc:type
           rdf:resource="http://purl.org/dc/dcmitype/StillImage" />
        <dc:title></dc:title>
      </cc:Work>
    </rdf:RDF>
  </metadata>
  <defs
     id="defs6" />
  <sodipodi:namedview
     pagecolor="#ffffff"
     bordercolor="#666666"
     borderopacity="1"
     objecttolerance="10"
     gridtolerance="10"
     guidetolerance="10"
     inkscape:pageopacity="0"
     inkscape:pageshadow="2"
     inkscape:window-width="1465"
     inkscape:window-height="984"
     id="namedview4"
     showgrid="false"
     inkscape:zoom="0.65373961"
     inkscape:cx="175.55932"
     inkscape:cy="180.5"
     inkscape:window-x="0"
     inkscape:window-y="31"
     inkscape:window-maximized="0"
     inkscape:current-layer="svg2" />
  <path
     style="fill:#000000"
     d="m 287,349.64527 c -15.16083,-5.82007 -29.02969,-13.54053 -54.04487,-30.08549 -24.54487,-16.23391 -24.54487,-16.23391 -58.88868,-7.46131 -18.8891,4.82493 -36.14714,9.07727 -38.3512,9.44964 -4.54303,0.76754 -4.50161,1.44982 -0.54938,-9.04811 4.22078,-11.21122 2.81241,-39.37912 -1.93484,-38.69775 -3.82377,0.54883 -9.74811,-3.53364 -18.54978,-12.78269 -12.88199,-13.53677 -14.24704,-17.65266 -7.28215,-21.9572 4.75631,-2.93956 4.81835,-3.68738 1.04739,-12.62627 -1.84135,-4.36485 -3.37009,-8.72359 -3.3972,-9.68609 -0.0436,-1.54656 -7.708643,-2.47491 -13.709395,-1.6604 -2.399472,0.32569 -3.871292,-9.44235 -3.719247,-24.68356 C 87.786423,173.78851 88.3912,172.65369 97.429763,172 c 6.633527,-0.47975 6.951957,-0.62148 7.863627,-3.5 0.52257,-1.65 2.28644,-6.09405 3.91969,-9.87567 2.96956,-6.87568 2.96956,-6.87568 -1.62176,-11.09097 -6.742,-6.18982 -5.76017,-9.74175 5.76482,-20.85528 C 128.91086,111.6787 132.62898,110.21853 138,117 c 3.69964,4.67118 4.50305,4.79133 10.78324,1.61263 2.59422,-1.31306 6.62926,-2.95929 8.96676,-3.65829 4.25,-1.27092 4.25,-1.27092 4.25,-7.99018 0,-9.10324 2.63444,-10.369586 21.5,-10.334818 19.02958,0.03507 21.2592,1.100783 21.69679,10.370608 0.30321,6.42325 0.30321,6.42325 8.30321,9.81404 11.76609,4.98705 11.69845,4.98585 15.43086,0.27331 5.32487,-6.7232 9.77567,-5.23616 22.79446,7.61578 13.24919,13.0794 14.46707,16.60216 7.84235,22.68432 -4.67343,4.29067 -4.67343,4.29067 3.12945,10.14426 16.65023,12.49073 23.76355,21.94542 31.69761,42.13098 12.39989,31.54737 23.51647,52.5062 35.422,66.78344 5.39576,6.47065 5.81509,6.39348 -13.69357,2.51991 -16.89048,-3.35372 -16.89048,-3.35372 -17.30804,-15.06536 C 297.5994,219.8026 267.43862,202.881 244.5,223.42731 c -4,3.58284 -4,3.58284 0,7.20758 7.61144,6.89736 20.42855,11.15458 33.58286,11.15458 7.22496,0 7.22496,0 7.42482,20.35527 0.12975,13.21459 0.7856,24.03868 1.86959,30.85526 1.33913,8.42108 8.94713,47.78734 11.16088,57.75 0.68129,3.06608 -1.12367,2.89326 -11.53815,-1.10473 z m -92.35019,-113.0402 c 32.73115,-8.715 44.10727,-48.68882 21.1002,-74.14261 -20.00303,-22.13028 -59.27366,-16.00833 -72.40212,11.28686 -16.60261,34.51824 14.5195,72.64944 51.30192,62.85575 z M 15,335.06742 c 0,-0.45363 1.338695,-1.37928 2.974877,-2.05701 4.169478,-1.72706 10.386927,-8.7858 13.808104,-15.67649 10.378793,-20.90425 9.575004,-41.72666 -3.293655,-85.3232 C 6.7897061,158.49658 28.772092,88.086067 86,47.801608 148.32672,3.9279384 231.56112,-4.5515065 295.5,26.458945 c 17.86378,8.66396 17.96331,8.798862 13.18732,17.873651 C 306.61263,48.274668 299.92081,61.175 293.8166,73 279.8975,99.963911 281.96469,97.975763 272.91611,93.101353 221.57689,65.445262 160.34012,69.156752 113.06826,102.78955 69.558807,133.74548 53.72646,171.87853 60.459726,229.5 67.524336,289.95702 54.23631,324.6177 20.25,334.38362 17.3625,335.21334 15,335.52105 15,335.06742 Z"
     id="path12"
     inkscape:connector-curvature="0" />
</svg>
