<?xml version="1.0" encoding="UTF-8" standalone="no"?>
<!-- Created with Inkscape (http://www.inkscape.org/) -->

<svg
   xmlns:dc="http://purl.org/dc/elements/1.1/"
   xmlns:cc="http://creativecommons.org/ns#"
   xmlns:rdf="http://www.w3.org/1999/02/22-rdf-syntax-ns#"
   xmlns:svg="http://www.w3.org/2000/svg"
   xmlns="http://www.w3.org/2000/svg"
   xmlns:sodipodi="http://sodipodi.sourceforge.net/DTD/sodipodi-0.dtd"
   xmlns:inkscape="http://www.inkscape.org/namespaces/inkscape"
   width="35.800915mm"
   height="32.730301mm"
   viewBox="0 0 35.800915 32.730301"
   version="1.1"
   id="svg8"
   inkscape:version="0.92.4 5da689c313, 2019-01-14"
   sodipodi:docname="helmet.svg">
  <defs
     id="defs2" />
  <sodipodi:namedview
     id="base"
     pagecolor="#ffffff"
     bordercolor="#666666"
     borderopacity="1.0"
     inkscape:pageopacity="0.0"
     inkscape:pageshadow="2"
     inkscape:zoom="3.4069326"
     inkscape:cx="87.055177"
     inkscape:cy="54.183303"
     inkscape:document-units="mm"
     inkscape:current-layer="layer1"
     showgrid="false"
     inkscape:window-width="950"
     inkscape:window-height="1046"
     inkscape:window-x="960"
     inkscape:window-y="0"
     inkscape:window-maximized="0" />
  <metadata
     id="metadata5">
    <rdf:RDF>
      <cc:Work
         rdf:about="">
        <dc:format>image/svg+xml</dc:format>
        <dc:type
           rdf:resource="http://purl.org/dc/dcmitype/StillImage" />
        <dc:title />
      </cc:Work>
    </rdf:RDF>
  </metadata>
  <g
     inkscape:label="Layer 1"
     inkscape:groupmode="layer"
     id="layer1"
     transform="translate(-2.6329142,-1.7306437)">
    <g
       transform="matrix(0.06982059,0,0,-0.06430844,10.310975,239.20942)"
       inkscape:label="ink_ext_XXXXXX"
       id="g10">
      <g
         transform="scale(0.1)"
         id="g12">
        <g
           transform="matrix(18000,0,0,18000,0,-4.35859e-4)"
           id="g14" />
      </g>
    </g>
    <path
       style="color:#000000;font-style:normal;font-variant:normal;font-weight:normal;font-stretch:normal;font-size:medium;line-height:normal;font-family:sans-serif;font-variant-ligatures:normal;font-variant-position:normal;font-variant-caps:normal;font-variant-numeric:normal;font-variant-alternates:normal;font-feature-settings:normal;text-indent:0;text-align:start;text-decoration:none;text-decoration-line:none;text-decoration-style:solid;text-decoration-color:#000000;letter-spacing:normal;word-spacing:normal;text-transform:none;writing-mode:lr-tb;direction:ltr;text-orientation:mixed;dominant-baseline:auto;baseline-shift:baseline;text-anchor:start;white-space:normal;shape-padding:0;clip-rule:nonzero;display:inline;overflow:visible;visibility:visible;opacity:1;isolation:auto;mix-blend-mode:normal;color-interpolation:sRGB;color-interpolation-filters:linearRGB;solid-color:#000000;solid-opacity:1;vector-effect:none;fill:#000000;fill-opacity:1;fill-rule:nonzero;stroke:none;stroke-width:0.99999994px;stroke-linecap:butt;stroke-linejoin:miter;stroke-miterlimit:4;stroke-dasharray:none;stroke-dashoffset:0;stroke-opacity:1;color-rendering:auto;image-rendering:auto;shape-rendering:auto;text-rendering:auto;enable-background:accumulate"
       d="M 92.494141,6.5410156 92.236328,6.96875 91.896484,6.6074219 13.457031,80.359375 l 0.347657,0.369141 -0.488282,0.103515 c 2.319189,10.668269 1.446407,18.062314 0.01563,22.779299 -1.430795,4.71698 -3.3808591,6.71875 -3.3808591,6.71875 l 0.3613281,0.3457 0.111328,0.48828 51.244141,-11.677732 c 0.166186,0.112743 9.550534,6.480922 21.710937,13.544922 12.267493,7.12621 27.144709,14.84638 37.802739,17.21484 l 0.10938,-0.48632 0.48046,-0.13282 c 0,0 -2.98248,-10.93036 -5.5293,-24.92968 -2.5468,-13.999325 -4.64584,-31.078716 -2.9082,-43.242192 l -0.49415,-0.06641 -0.0664,-0.496094 c 0,0 -19.046088,2.499195 -29.062497,-8.488281 0.639957,-0.572651 4.252044,-3.730327 9.876953,-5.507813 6.145818,-1.942095 14.124964,-1.932231 21.916024,6.083985 4.15427,4.27437 6.51404,10.543173 5.02734,22.90625 l 0.50194,0.05859 -0.0879,0.494141 23.88672,4.207031 0.0898,-0.49414 0.33984,-0.369141 c 0,0 -3.95844,-3.617485 -9.65625,-11.847656 -5.69781,-8.230171 -13.11087,-21.046274 -19.94531,-39.375 l -0.47266,0.169922 0.46484,-0.191407 c 0,0 -1.15908,-2.753921 -4.62109,-6.851562 C 107.56918,17.589852 101.7855,12.108477 92.494086,6.5410086 Z M 92.28125,7.6113281 c 8.98528,5.4361549 14.63633,10.7583149 17.98242,14.7187499 3.39137,4.014029 4.46485,6.59961 4.46485,6.59961 6.86126,18.394276 14.31002,31.282007 20.05078,39.574218 5.2246,7.546643 8.26664,10.313654 8.91601,10.931641 l -22.18164,-3.912109 c 1.35761,-12.143471 -0.98889,-18.817822 -5.28515,-23.238282 -8.03157,-8.26368 -16.544476,-8.359442 -22.935551,-6.339844 -6.391076,2.019599 -10.75586,6.103516 -10.75586,6.103516 L 82.884766,52.412109 82.5,52.744141 c 10.110716,11.731007 28.86319,9.271204 29.83789,9.138671 -1.64537,12.360046 0.40312,29.136315 2.92383,42.992188 2.46146,13.53018 5.13686,23.33771 5.34375,24.10156 C 110.2454,126.48786 95.845661,119.11835 83.880859,112.16797 71.646585,105.06105 62.037109,98.533203 62.037109,98.533203 L 61.859375,98.416016 11.212891,109.96094 c 0.488886,-0.57515 1.809144,-1.90279 3.070312,-6.06055 1.466221,-4.833773 2.292859,-12.355029 0.03711,-22.980468 z"
       transform="scale(0.26458333)"
       id="path4601"
       inkscape:connector-curvature="0" />
  </g>
</svg>
